<svg width="41" height="41" viewBox="0 0 41 41" fill="none" xmlns="http://www.w3.org/2000/svg">
<g clip-path="url(#clip0_1_70)">
<path d="M20.5012 41C15.0263 41 9.8779 38.8683 6.00602 34.9965C2.13165 31.1246 0 25.9762 0 20.5012C0 15.0263 2.13165 9.8754 6.00353 6.00353C9.8754 2.13165 15.0238 0 20.5012 0C25.9787 0 31.1246 2.13165 34.9965 6.00353C38.8683 9.8754 41 15.0238 41 20.4988C41 25.9737 38.8683 31.1221 34.9965 34.994C31.1246 38.8659 25.9762 40.9975 20.5012 40.9975V41Z" fill="#FCF0E2"/>
<path d="M23.7872 20.2544C27.4522 17.4521 30.7606 14.6399 32.3288 13.2836C32.5233 13.114 32.8274 13.2437 32.8399 13.503C32.9122 14.9365 33.0144 17.4696 33.0144 20.5013C33.0144 23.533 32.9122 26.066 32.8399 27.4996C32.8274 27.7564 32.5233 27.886 32.3288 27.719C30.7581 26.3602 27.4447 23.5454 23.7872 20.7481C23.6252 20.6234 23.6252 20.3791 23.7872 20.2569V20.2544ZM31.7504 12.9545C29.716 14.7097 25.2108 18.5167 20.6808 21.7852C20.5736 21.8625 20.4265 21.8625 20.3193 21.7852C15.7917 18.5167 11.284 14.7097 9.24963 12.9545C9.0402 12.7725 9.15489 12.4284 9.43163 12.411C11.3788 12.2813 15.1858 12.0894 20.4988 12.0894C25.8117 12.0894 29.6187 12.2813 31.5659 12.411C31.8426 12.4284 31.9573 12.7725 31.7479 12.9545H31.7504ZM8.67121 27.7165C8.47675 27.886 8.17258 27.7564 8.16012 27.4971C8.08782 26.0635 7.9856 23.5305 7.9856 20.4988C7.9856 17.4671 8.08782 14.934 8.16012 13.5005C8.17258 13.2437 8.47675 13.114 8.67121 13.2811C10.2394 14.6374 13.5478 17.4496 17.2128 20.252C17.3748 20.3766 17.3748 20.6209 17.2128 20.7431C13.5553 23.5404 10.2419 26.3552 8.67121 27.714V27.7165ZM9.24963 28.0456C10.9151 26.607 14.2409 23.7947 17.8685 21.0348C17.9782 20.95 18.1303 20.95 18.2425 21.0348C18.9306 21.5509 19.6237 22.0595 20.3193 22.5556C20.3741 22.5955 20.4364 22.613 20.5013 22.613C20.5661 22.613 20.6284 22.593 20.6833 22.5556C21.3764 22.0595 22.0719 21.5484 22.7601 21.0348C22.8698 20.9525 23.0243 20.9525 23.134 21.0348C26.7616 23.7947 30.0875 26.6095 31.7529 28.0456C31.9623 28.2276 31.8476 28.5716 31.5709 28.5891C29.6237 28.7187 25.8167 28.9107 20.5037 28.9107C15.1908 28.9107 11.3838 28.7187 9.43412 28.5891C9.15738 28.5716 9.0427 28.2276 9.25212 28.0456H9.24963Z" fill="#5154A3"/>
</g>
<defs>
<clipPath id="clip0_1_70">
<rect width="41" height="41" fill="white"/>
</clipPath>
</defs>
</svg>
