<svg width="41" height="42" viewBox="0 0 41 42" fill="none" xmlns="http://www.w3.org/2000/svg">
<g clip-path="url(#clip0_1_75)">
<path d="M40.4653 25.7349C43.0177 14.4369 36.1459 3.15841 25.1168 0.543809C14.0878 -2.07079 3.07783 4.96856 0.525486 16.2666C-2.02686 27.5647 4.84489 38.8432 15.874 41.4578C26.903 44.0724 37.913 37.033 40.4653 25.7349Z" fill="#FCF0E2"/>
<path d="M20.4976 0C20.4605 0 20.4281 0 20.3911 0V41.9953C20.4281 41.9953 20.4605 41.9953 20.4976 41.9953C31.8178 41.9953 40.9952 32.594 40.9952 20.9976C40.9952 9.40129 31.8224 0 20.4976 0Z" fill="#FCF0E2"/>
<path d="M20.4976 40.6062C31.0693 40.6062 39.6393 31.8272 39.6393 20.9977C39.6393 10.1682 31.0693 1.38916 20.4976 1.38916C9.92597 1.38916 1.35596 10.1682 1.35596 20.9977C1.35596 31.8272 9.92597 40.6062 20.4976 40.6062Z" fill="#FCF0E2"/>
<path d="M20.3912 1.39893C9.8716 1.45582 1.3606 10.2076 1.3606 20.998C1.3606 31.7884 9.8716 40.5401 20.3912 40.6018V1.39893Z" fill="#FCF0E2"/>
<path d="M20.4976 40.6064C31.0681 40.6064 39.6392 31.8261 39.6392 20.9978C39.6392 10.1695 31.0681 1.39404 20.4976 1.39404C20.4605 1.39404 20.4281 1.39404 20.3911 1.39404V40.6016C20.4281 40.6016 20.4605 40.6016 20.4976 40.6016V40.6064Z" fill="#FCF0E2"/>
<path d="M25.0701 21.5476H22.0388V31.5462H17.5449V21.5476H15.4067V17.6363H17.5449V15.1046C17.5449 13.2936 18.3826 10.4585 22.0804 10.4585L25.4126 10.4727V14.2702H22.9968C22.5987 14.2702 22.0434 14.4741 22.0434 15.3369V17.641H25.4681L25.0748 21.5523L25.0701 21.5476Z" fill="#5154A3"/>
</g>
<defs>
<clipPath id="clip0_1_75">
<rect width="41" height="42" fill="white"/>
</clipPath>
</defs>
</svg>
