<svg width="43" height="43" viewBox="0 0 43 43" fill="none" xmlns="http://www.w3.org/2000/svg">
<g clip-path="url(#clip0_1_48)">
<path d="M36.6965 36.6986C45.0918 28.3033 45.0918 14.6918 36.6965 6.29648C28.3012 -2.09885 14.6897 -2.09885 6.29434 6.29648C-2.10098 14.6918 -2.10098 28.3033 6.29434 36.6986C14.6897 45.094 28.3012 45.094 36.6965 36.6986Z" fill="#FCF0E2"/>
<path d="M21.4976 0C21.4588 0 21.4248 0 21.386 0V42.9951C21.4248 42.9951 21.4588 42.9951 21.4976 42.9951C33.3701 42.9951 42.9952 33.37 42.9952 21.4976C42.9952 9.62513 33.3749 0 21.4976 0Z" fill="#FCF0E2"/>
<path d="M21.4975 41.5727C32.5849 41.5727 41.5729 32.5846 41.5729 21.4973C41.5729 10.4099 32.5849 1.42188 21.4975 1.42188C10.4102 1.42188 1.42212 10.4099 1.42212 21.4973C1.42212 32.5846 10.4102 41.5727 21.4975 41.5727Z" fill="#FCF0E2"/>
<path d="M21.3859 1.43164C10.3532 1.48989 1.427 10.45 1.427 21.4973C1.427 32.5446 10.3532 41.5048 21.3859 41.5679V1.43164Z" fill="#FCF0E2"/>
<path d="M21.4976 41.5727C32.5838 41.5727 41.573 32.5834 41.573 21.4973C41.573 10.4112 32.5838 1.42676 21.4976 1.42676C21.4588 1.42676 21.4248 1.42676 21.386 1.42676V41.5679C21.4248 41.5679 21.4588 41.5679 21.4976 41.5679V41.5727Z" fill="#FCF0E2"/>
<path d="M26.6328 10.499H16.8572C13.542 10.499 10.853 13.188 10.853 16.5032V26.2788C10.853 29.594 13.542 32.283 16.8572 32.283H26.6328C29.948 32.283 32.637 29.594 32.637 26.2788V16.5032C32.637 13.188 29.948 10.499 26.6328 10.499ZM30.8799 26.2545C30.8799 28.6135 28.9675 30.5259 26.6085 30.5259H16.8815C14.5225 30.5259 12.6101 28.6135 12.6101 26.2545V16.5275C12.6101 14.1685 14.5225 12.2561 16.8815 12.2561H26.6085C28.9675 12.2561 30.8799 14.1685 30.8799 16.5275V26.2545Z" fill="#5154A3"/>
<path d="M21.7499 15.6489C18.5803 15.6489 16.0078 18.2215 16.0078 21.391C16.0078 24.5605 18.5803 27.1331 21.7499 27.1331C24.9194 27.1331 27.492 24.5605 27.492 21.391C27.492 18.2215 24.9194 15.6489 21.7499 15.6489ZM21.7499 25.1381C19.6822 25.1381 18.0076 23.4636 18.0076 21.3959C18.0076 19.3281 19.6822 17.6536 21.7499 17.6536C23.8176 17.6536 25.4922 19.3281 25.4922 21.3959C25.4922 23.4636 23.8176 25.1381 21.7499 25.1381Z" fill="#5154A3"/>
<path d="M28.9724 15.4596C28.9724 16.1731 28.3948 16.7459 27.6862 16.7459C26.9775 16.7459 26.3999 16.1683 26.3999 15.4596C26.3999 14.7509 26.9775 14.1733 27.6862 14.1733C28.3948 14.1733 28.9724 14.7509 28.9724 15.4596Z" fill="#5154A3"/>
</g>
<defs>
<clipPath id="clip0_1_48">
<rect width="43" height="43" fill="white"/>
</clipPath>
</defs>
</svg>
