<svg width="44" height="44" viewBox="0 0 44 44" fill="none" xmlns="http://www.w3.org/2000/svg">
<g clip-path="url(#clip0_1_38)">
<path d="M43.3655 27.2325C46.2552 15.4323 39.0318 3.52379 27.2315 0.634106C15.4313 -2.25557 3.52279 4.96785 0.633107 16.7681C-2.25657 28.5683 4.96685 40.4768 16.7671 43.3665C28.5673 46.2562 40.4758 39.0328 43.3655 27.2325Z" fill="#FCF0E2"/>
<path d="M21.9975 0C21.9578 0 21.923 0 21.8833 0V43.995C21.923 43.995 21.9578 43.995 21.9975 43.995C34.1461 43.995 43.9951 34.1461 43.9951 21.9975C43.9951 9.84897 34.1511 0 21.9975 0Z" fill="#FCF0E2"/>
<path d="M21.9976 42.5396C33.3428 42.5396 42.5399 33.3425 42.5399 21.9974C42.5399 10.6522 33.3428 1.45508 21.9976 1.45508C10.6524 1.45508 1.45532 10.6522 1.45532 21.9974C1.45532 33.3425 10.6524 42.5396 21.9976 42.5396Z" fill="#FCF0E2"/>
<path d="M21.8833 1.46484C10.594 1.52444 1.46021 10.693 1.46021 21.9972C1.46021 33.3014 10.594 42.4699 21.8833 42.5345V1.46484Z" fill="#FCF0E2"/>
<path d="M21.9975 42.5395C33.3415 42.5395 42.5348 33.3412 42.5348 21.9973C42.5348 10.6533 33.3415 1.45996 21.9975 1.45996C21.9578 1.45996 21.923 1.45996 21.8833 1.45996V42.5346C21.923 42.5346 21.9578 42.5346 21.9975 42.5346V42.5395Z" fill="#FCF0E2"/>
<path d="M32.2885 22.5787V29.7257H28.1463V23.0555C28.1463 21.3817 27.5503 20.2393 26.0454 20.2393C24.8981 20.2393 24.2176 21.0092 23.9196 21.7542C23.8104 22.0224 23.7806 22.3899 23.7806 22.7624V29.7257H19.6334C19.6334 29.7257 19.688 18.4315 19.6334 17.2593H23.7806V19.0275C23.7806 19.0275 23.7607 19.0573 23.7508 19.0672H23.7806V19.0275C24.3319 18.1782 25.3153 16.9663 27.5155 16.9663C30.2422 16.9663 32.2885 18.7493 32.2885 22.5737V22.5787ZM13.2015 29.7307H17.3437V17.2643H13.2015V29.7307ZM17.4679 13.0327C17.4679 14.2098 16.5143 15.1683 15.3322 15.1683C14.1501 15.1683 13.1965 14.2147 13.1965 13.0327C13.1965 11.8506 14.1501 10.897 15.3322 10.897C16.5143 10.897 17.4679 11.8506 17.4679 13.0327Z" fill="#5154A3"/>
</g>
<defs>
<clipPath id="clip0_1_38">
<rect width="44" height="44" fill="white"/>
</clipPath>
</defs>
</svg>
