<svg width="41" height="41" viewBox="0 0 41 41" fill="none" xmlns="http://www.w3.org/2000/svg">
<g clip-path="url(#clip0_1_61)">
<path d="M20.5012 41C15.0263 41 9.8779 38.8683 6.00602 34.9965C2.13165 31.1246 0 25.9762 0 20.5012C0 15.0263 2.13165 9.8754 6.00353 6.00353C9.8754 2.13165 15.0238 0 20.5012 0C25.9787 0 31.1246 2.13165 34.9965 6.00353C38.8683 9.8754 41 15.0238 41 20.4988C41 25.9737 38.8683 31.1221 34.9965 34.994C31.1246 38.8659 25.9762 40.9975 20.5012 40.9975V41Z" fill="#FCF0E2"/>
<path d="M27.7066 10.4365C25.717 8.44692 23.1092 7.45215 20.5013 7.45215C17.8935 7.45215 15.2831 8.44692 13.2936 10.4365C9.65608 14.074 9.29956 19.8531 12.4634 23.9095L19.6611 33.1417C20.0875 33.6877 20.9102 33.6877 21.3365 33.1417L28.5368 23.9095C31.7006 19.8531 31.3441 14.074 27.7066 10.4365ZM20.5013 21.6781C18.26 21.6781 16.4425 19.8606 16.4425 17.6193C16.4425 15.3779 18.26 13.5604 20.5013 13.5604C22.7427 13.5604 24.5602 15.3779 24.5602 17.6193C24.5602 19.8606 22.7427 21.6781 20.5013 21.6781Z" fill="#5154A3"/>
</g>
<defs>
<clipPath id="clip0_1_61">
<rect width="41" height="41" fill="white"/>
</clipPath>
</defs>
</svg>
