<svg width="40" height="40" viewBox="0 0 40 40" fill="none" xmlns="http://www.w3.org/2000/svg">
<g clip-path="url(#clip0_1_65)">
<path d="M20.0012 40C14.6598 40 9.63697 37.9203 5.85953 34.1429C2.07966 30.3655 0 25.3427 0 20.0012C0 14.6598 2.07966 9.63454 5.8571 5.8571C9.63454 2.07966 14.6573 0 20.0012 0C25.3451 0 30.3655 2.07966 34.1429 5.8571C37.9203 9.63454 40 14.6573 40 19.9988C40 25.3402 37.9203 30.363 34.1429 34.1405C30.3655 37.9179 25.3427 39.9976 20.0012 39.9976V40Z" fill="#FCF0E2"/>
<path d="M29.6624 27.4177L29.0835 28.483C28.6432 29.293 27.8041 29.8062 26.8822 29.8257C24.501 29.8719 19.7408 29.2979 15.224 24.781C10.6803 20.2374 10.116 15.4894 10.172 13.1179C10.1939 12.2009 10.7071 11.3641 11.5122 10.9263L12.5849 10.345C13.1224 10.0531 13.7865 10.1504 14.2194 10.5809L17.1212 13.4827C17.6612 14.0227 17.6612 14.8959 17.1212 15.4335L16.5204 16.0318C16.2139 16.3383 16.1142 16.7932 16.265 17.1994C16.5764 18.0409 17.3036 19.5368 18.8847 21.1203C20.4657 22.7013 21.964 23.4286 22.8056 23.7399C23.2118 23.8908 23.6667 23.7886 23.9707 23.4846L24.5715 22.8862C25.1115 22.3462 25.9847 22.3462 26.5222 22.8862L29.424 25.788C29.857 26.2209 29.9519 26.885 29.66 27.4225L29.6624 27.4177Z" fill="#5154A3"/>
</g>
<defs>
<clipPath id="clip0_1_65">
<rect width="40" height="40" fill="white"/>
</clipPath>
</defs>
</svg>
